<?xml version="1.0" encoding="UTF-8" standalone="no"?>
<!-- Created with Inkscape (http://www.inkscape.org/) -->
<svg xmlns:dc="http://purl.org/dc/elements/1.1/" xmlns:cc="http://creativecommons.org/ns#" xmlns:rdf="http://www.w3.org/1999/02/22-rdf-syntax-ns#" xmlns:svg="http://www.w3.org/2000/svg" xmlns="http://www.w3.org/2000/svg" xmlns:sodipodi="http://sodipodi.sourceforge.net/DTD/sodipodi-0.dtd" xmlns:inkscape="http://www.inkscape.org/namespaces/inkscape" version="1.0" width="234.80009" height="252.19258" id="svg5880" sodipodi:version="0.32" inkscape:version="0.46" sodipodi:docname="Verkehrsverbundberlinbrandenburg-logo2.svg" inkscape:output_extension="org.inkscape.output.svg.inkscape">
  <metadata id="metadata47">
    <rdf:RDF>
      <cc:Work rdf:about="">
        <dc:format>image/svg+xml</dc:format>
        <dc:type rdf:resource="http://purl.org/dc/dcmitype/StillImage"/>
      </cc:Work>
    </rdf:RDF>
  </metadata>
  <sodipodi:namedview inkscape:window-height="998" inkscape:window-width="1280" inkscape:pageshadow="2" inkscape:pageopacity="0.0" guidetolerance="10.0" gridtolerance="10.0" objecttolerance="10.0" borderopacity="1.0" bordercolor="#666666" pagecolor="#ffffff" id="base" showgrid="false" inkscape:zoom="0.76764449" inkscape:cx="267.12648" inkscape:cy="126.09628" inkscape:window-x="0" inkscape:window-y="0" inkscape:current-layer="layer1"/>
  <defs id="defs5882">
    <inkscape:perspective sodipodi:type="inkscape:persp3d" inkscape:vp_x="0 : 126.09628 : 1" inkscape:vp_y="0 : 1000 : 0" inkscape:vp_z="708.66138 : 126.09628 : 1" inkscape:persp3d-origin="354.33069 : 84.064189 : 1" id="perspective49"/>
  </defs>
  <g transform="translate(-323.07455,-289.75156)" id="layer1">
    <path id="path4090" style="font-size:7px;letter-spacing:0;word-spacing:0;fill:#ec1b24;fill-rule:nonzero;stroke:none;stroke-width:0.56699997;stroke-linecap:butt;stroke-linejoin:miter;stroke-miterlimit:3.86400008;stroke-dasharray:none;font-family:fnt3" d="M 440.47467,541.94414 C 387.16632,541.94414 341.51071,508.81126 323.07455,462.02524 L 354.20728,462.02524 C 370.64331,492.72318 403.16755,513.68126 440.47467,513.68126 L 440.47467,541.94414"/>
    <path id="path4092" style="font-size:7px;letter-spacing:0;word-spacing:0;fill:#ec1b24;fill-rule:nonzero;stroke:none;stroke-width:0.56699997;stroke-linecap:butt;stroke-linejoin:miter;stroke-miterlimit:3.86400008;stroke-dasharray:none;font-family:fnt3" d="M 541.1778,491.67962 C 535.43821,499.33236 528.82904,506.28934 521.52411,512.37674 L 503.3489,490.72304 C 509.08836,486.02702 514.13233,480.63524 518.65438,474.72181 L 541.1778,491.67962"/>
    <path id="path4094" style="font-size:7px;letter-spacing:0;word-spacing:0;fill:#ec1b24;fill-rule:nonzero;stroke:none;stroke-width:0.56699997;stroke-linecap:butt;stroke-linejoin:miter;stroke-miterlimit:3.86400008;stroke-dasharray:none;font-family:fnt3" d="M 502.56617,525.5951 C 491.26096,532.03044 478.82534,536.72646 465.60699,539.42222 L 460.04124,511.68112 C 470.21603,509.594 479.86891,505.94153 488.65206,500.98455 L 502.56617,525.5951"/>
    <path id="path4096" style="font-size:7px;letter-spacing:0;word-spacing:0;fill:#ec1b24;fill-rule:nonzero;stroke:none;stroke-width:0.56699997;stroke-linecap:butt;stroke-linejoin:miter;stroke-miterlimit:3.86400008;stroke-dasharray:none;font-family:fnt3" d="M 378.38303,306.01362 C 389.77522,299.57828 402.21097,294.88239 415.34234,292.1865 L 420.99494,319.92772 C 410.7333,322.01485 401.08042,325.66718 392.29714,330.62416 L 378.38303,306.01362"/>
    <path id="path4098" style="font-size:7px;letter-spacing:0;word-spacing:0;fill:#ec1b24;fill-rule:nonzero;stroke:none;stroke-width:0.56699997;stroke-linecap:butt;stroke-linejoin:miter;stroke-miterlimit:3.86400008;stroke-dasharray:none;font-family:fnt3" d="M 440.47467,289.75156 C 493.78288,289.75156 539.43849,322.88444 557.87465,369.67046 L 526.74191,369.67046 C 510.30589,338.88567 477.78178,317.92759 440.47467,317.92759 L 440.47467,289.75156"/>
    <path id="path4100" style="font-size:7px;letter-spacing:0;word-spacing:0;fill:#ec1b24;fill-rule:nonzero;stroke:none;stroke-width:0.56699997;stroke-linecap:butt;stroke-linejoin:miter;stroke-miterlimit:3.86400008;stroke-dasharray:none;font-family:fnt3" d="M 339.77153,339.9291 C 345.51098,332.27636 352.12016,325.31937 359.42509,319.23197 L 377.60043,340.8858 C 371.94783,345.5817 366.817,350.97347 362.3818,356.8869 L 339.77153,339.9291"/>
    <path id="path4102" style="font-size:7px;letter-spacing:0;word-spacing:0;fill:#ec1b24;fill-rule:evenodd;stroke:none;stroke-width:0.56699997;stroke-linecap:butt;stroke-linejoin:miter;stroke-miterlimit:3.86400008;stroke-dasharray:none;font-family:fnt3" d="M 461.25877,430.10977 C 458.21508,443.8499 447.17083,449.5025 433.95234,449.5025 L 406.29823,449.5025 L 421.69056,381.67142 L 448.1274,381.67142 C 462.73713,381.67142 469.7811,387.8458 467.25919,398.97703 C 465.34603,407.67333 460.47617,412.1084 454.82357,414.45648 C 460.47617,417.06538 462.99809,422.54401 461.25877,430.10977 z M 429.08248,435.24059 L 432.21316,421.41347 L 437.17001,421.41347 C 441.34426,421.41347 443.17042,423.76154 442.12686,428.2836 C 441.0833,432.89264 437.86576,435.24059 432.99577,435.24059 L 429.08248,435.24059 z M 495.60918,408.54292 L 498.47891,395.58552 L 502.56617,395.58552 C 506.30562,395.58552 508.56658,397.49867 507.52315,401.84676 C 506.3926,406.97758 502.47918,408.54292 498.30507,408.54292 L 495.60918,408.54292 z M 521.78506,430.10977 C 518.65438,443.8499 507.61,449.5025 494.39165,449.5025 L 466.7374,449.5025 L 482.12987,381.67142 L 508.56658,381.67142 C 523.17644,381.67142 530.30739,387.8458 527.69849,398.97703 C 525.78534,407.67333 520.91534,412.1084 515.26274,414.45648 C 520.91534,417.06538 523.43726,422.54401 521.78506,430.10977 z M 489.52178,435.24059 L 492.65247,421.41347 L 497.6963,421.41347 C 501.78356,421.41347 503.60973,423.76154 502.56617,428.2836 C 501.5226,432.89264 498.30507,435.24059 493.43507,435.24059 L 489.52178,435.24059 z M 394.12331,381.67142 L 416.12495,381.67142 L 380.12235,449.5025 L 358.03372,449.5025 L 352.64194,381.67142 L 375.07851,381.67142 L 375.33933,422.45703 L 394.12331,381.67142 z M 435.16987,408.54292 L 438.0396,395.58552 L 442.12686,395.58552 C 445.86631,395.58552 448.1274,397.49867 447.08384,401.84676 C 445.9533,406.97758 442.04001,408.54292 437.86576,408.54292 L 435.16987,408.54292"/>
  </g>
</svg>